<svg width="420" height="360" viewBox="0 0 420 360" fill="none" xmlns="http://www.w3.org/2000/svg">
  <defs>
    <linearGradient id="heroBg" x1="60" y1="40" x2="360" y2="320" gradientUnits="userSpaceOnUse">
      <stop offset="0%" stop-color="#26B4E5" stop-opacity="0.16" />
      <stop offset="100%" stop-color="#6BCF7E" stop-opacity="0.22" />
    </linearGradient>
    <linearGradient id="heroCard" x1="120" y1="90" x2="300" y2="250" gradientUnits="userSpaceOnUse">
      <stop offset="0%" stop-color="#F8FBFF" />
      <stop offset="100%" stop-color="#EBF7F0" />
    </linearGradient>
  </defs>
  <rect x="20" y="20" width="380" height="320" rx="36" fill="url(#heroBg)" />
  <rect x="70" y="70" width="280" height="200" rx="22" fill="#FFFFFF" stroke="#E1E8F0" stroke-width="2" />
  <rect x="70" y="70" width="280" height="60" rx="22" fill="url(#heroCard)" />
  <circle cx="110" cy="102" r="10" fill="#26B4E5" />
  <circle cx="142" cy="102" r="10" fill="#4DC3C1" />
  <circle cx="174" cy="102" r="10" fill="#6BCF7E" />
  <rect x="100" y="150" width="200" height="16" rx="8" fill="#26B4E5" fill-opacity="0.25" />
  <rect x="100" y="182" width="160" height="16" rx="8" fill="#26B4E5" fill-opacity="0.18" />
  <rect x="100" y="214" width="220" height="16" rx="8" fill="#26B4E5" fill-opacity="0.12" />
  <rect x="120" y="250" width="180" height="70" rx="18" fill="#FFFFFF" stroke="#D8E3ED" />
  <rect x="140" y="270" width="96" height="14" rx="7" fill="#26B4E5" fill-opacity="0.35" />
  <rect x="140" y="292" width="140" height="14" rx="7" fill="#26B4E5" fill-opacity="0.2" />
</svg>
