<svg width="200" height="60" viewBox="0 0 200 60" fill="none" xmlns="http://www.w3.org/2000/svg">
  <defs>
    <linearGradient id="fairviaGradient" x1="18" y1="0" x2="18" y2="48" gradientUnits="userSpaceOnUse">
      <stop offset="0%" stop-color="#26B4E5" />
      <stop offset="100%" stop-color="#6BCF7E" />
    </linearGradient>
  </defs>
  <g transform="translate(6 6)">
    <path d="M24 0c1.9 0 3.7 0.73 5.1 2.04l12.9 12.12C43.6 15.28 45 17.99 45 20.95v14.1c0 2.96-1.4 5.67-3.1 6.79l-12.9 8.39C27.6 51.35 25.9 52 24 52c-1.9 0-3.7-0.65-5-1.77L6.2 41.84C4.4 40.41 3 37.7 3 34.74V20.95C3 17.99 4.4 15.28 6.2 13.16L19 2.04C20.3 0.73 22.1 0 24 0Z" fill="url(#fairviaGradient)"/>
    <path d="M24 9.5c-0.6 0-1.2 0.2-1.6 0.58l-8.6 7.63c-0.9 0.8-0.9 2.18-0.1 3 0.8 0.82 2.1 0.87 2.9 0.09l7.4-6.56h7.1c1.1 0 2-0.88 2-1.97 0-1.09-0.9-1.97-2-1.97H24Z" fill="#ffffff"/>
    <path d="M18.2 26.09c0-1.09 0.9-1.97 2-1.97h9.3c1.1 0 2 0.88 2 1.97 0 1.09-0.9 1.98-2 1.98h-7.3v7.42c0 1.09-0.9 1.97-2 1.97-1.1 0-2-0.88-2-1.97v-9.4Z" fill="#ffffff"/>
  </g>
  <text x="70" y="40" font-family="'Inter', 'Segoe UI', sans-serif" font-size="32" font-weight="600" fill="#111827">Fairvia</text>
</svg>
